<?xml version="1.0" encoding="UTF-8" standalone="no"?>
<svg
   xmlns:dc="http://purl.org/dc/elements/1.1/"
   xmlns:cc="http://creativecommons.org/ns#"
   xmlns:rdf="http://www.w3.org/1999/02/22-rdf-syntax-ns#"
   xmlns:svg="http://www.w3.org/2000/svg"
   xmlns="http://www.w3.org/2000/svg"
   xmlns:sodipodi="http://sodipodi.sourceforge.net/DTD/sodipodi-0.dtd"
   xmlns:inkscape="http://www.inkscape.org/namespaces/inkscape"
   inkscape:version="1.0 (4035a4fb49, 2020-05-01)"
   sodipodi:docname="dropdown.svg"
   id="svg8"
   version="1.1"
   viewBox="0 0 35.277787 29.98611"
   height="29.986111mm"
   width="35.277786mm">
  <defs
     id="defs2" />
  <sodipodi:namedview
     inkscape:window-maximized="1"
     inkscape:window-y="-8"
     inkscape:window-x="-8"
     inkscape:window-height="1017"
     inkscape:window-width="1920"
     fit-margin-bottom="0"
     fit-margin-right="0"
     fit-margin-left="0"
     fit-margin-top="0"
     showgrid="false"
     inkscape:document-rotation="0"
     inkscape:current-layer="layer1"
     inkscape:document-units="mm"
     inkscape:cy="44.950094"
     inkscape:cx="72.319366"
     inkscape:zoom="3.959798"
     inkscape:pageshadow="2"
     inkscape:pageopacity="0"
     borderopacity="1.0"
     bordercolor="#666666"
     pagecolor="#000000"
     id="base" />
  <metadata
     id="metadata5">
    <rdf:RDF>
      <cc:Work
         rdf:about="">
        <dc:format>image/svg+xml</dc:format>
        <dc:type
           rdf:resource="http://purl.org/dc/dcmitype/StillImage" />
        <dc:title></dc:title>
      </cc:Work>
    </rdf:RDF>
  </metadata>
  <g
     transform="translate(-56.327953,-146.68093)"
     id="layer1"
     inkscape:groupmode="layer"
     inkscape:label="Vrstva 1">
    <path
       sodipodi:nodetypes="sscsssssscscscsssccscssscsc"
       id="path883"
       d="m 57.359149,175.63584 c -0.621654,-0.62165 -0.794961,-1.3971 -0.794961,-1.9615 0,-0.5644 0.173307,-1.35167 0.794961,-1.97332 1.031197,-1.0312 1.031197,-1.0312 16.607699,-1.0312 15.57649,0 15.57649,0 16.60769,1.0312 0.62165,0.62165 0.713817,1.3696 0.713817,1.934 0,0.5644 -0.09217,1.37917 -0.713817,2.00082 -1.0312,1.0312 -1.0312,1.0312 -16.60769,1.0312 -15.576502,0 -15.576502,0 -16.607699,-1.0312 z m 0,-11.99444 c -0.621654,-0.62165 -0.794961,-1.39711 -0.794961,-1.9615 0,-0.5644 0.173307,-1.35167 0.794961,-1.97333 1.031197,-1.03119 1.031197,-1.03119 16.607699,-1.03119 15.57649,0 15.57649,0 16.60769,1.03119 0.62165,0.62166 0.713817,1.36961 0.713817,1.93401 0,0.56439 -0.09217,1.37917 -0.713817,2.00082 -1.0312,1.0312 -1.0312,1.0312 -16.60769,1.0312 -15.576502,0 -15.576502,0 -16.607699,-1.0312 z m 0,-11.99444 c -0.621654,-0.62166 -0.794961,-1.39711 -0.794961,-1.96151 0,-0.56439 0.173307,-1.35167 0.794961,-1.97332 1.031197,-1.0312 1.031197,-1.0312 16.607699,-1.0312 15.57649,0 15.57649,0 16.60769,1.0312 0.62165,0.62165 0.713817,1.36961 0.713817,1.934 0,0.5644 -0.09217,1.37917 -0.713817,2.00083 -1.0312,1.03119 -1.0312,1.03119 -16.60769,1.03119 -15.576502,0 -15.576502,0 -16.607699,-1.03119 z"
       style="fill:#ffffff;fill-opacity:1;stroke-width:0.352778" />
  </g>
</svg>
