<?xml version="1.0" encoding="UTF-8" standalone="no"?>
<svg
   xmlns:dc="http://purl.org/dc/elements/1.1/"
   xmlns:cc="http://creativecommons.org/ns#"
   xmlns:rdf="http://www.w3.org/1999/02/22-rdf-syntax-ns#"
   xmlns:svg="http://www.w3.org/2000/svg"
   xmlns="http://www.w3.org/2000/svg"
   xmlns:sodipodi="http://sodipodi.sourceforge.net/DTD/sodipodi-0.dtd"
   xmlns:inkscape="http://www.inkscape.org/namespaces/inkscape"
   sodipodi:docname="forn.svg"
   inkscape:version="1.0 (4035a4fb49, 2020-05-01)"
   id="svg8"
   version="1.1"
   viewBox="0 0 23.988892 34.57222"
   height="34.57222mm"
   width="23.988892mm">
  <defs
     id="defs2" />
  <sodipodi:namedview
     inkscape:window-maximized="1"
     inkscape:window-y="-8"
     inkscape:window-x="-8"
     inkscape:window-height="1017"
     inkscape:window-width="1920"
     fit-margin-bottom="0"
     fit-margin-right="0"
     fit-margin-left="0"
     fit-margin-top="0"
     showgrid="false"
     inkscape:document-rotation="0"
     inkscape:current-layer="layer1"
     inkscape:document-units="mm"
     inkscape:cy="74.559933"
     inkscape:cx="43.30156"
     inkscape:zoom="5.6"
     inkscape:pageshadow="2"
     inkscape:pageopacity="0"
     borderopacity="1.0"
     bordercolor="#666666"
     pagecolor="#000000"
     id="base" />
  <metadata
     id="metadata5">
    <rdf:RDF>
      <cc:Work
         rdf:about="">
        <dc:format>image/svg+xml</dc:format>
        <dc:type
           rdf:resource="http://purl.org/dc/dcmitype/StillImage" />
        <dc:title></dc:title>
      </cc:Work>
    </rdf:RDF>
  </metadata>
  <g
     transform="translate(-88.121999,-149.07066)"
     id="layer1"
     inkscape:groupmode="layer"
     inkscape:label="Vrstva 1">
    <path
       id="path847"
       d="m 88.705842,182.99774 c -0.525271,-0.58042 -0.583843,-2.256 -0.583843,-16.70227 0,-15.10786 0.03814,-16.09164 0.645139,-16.64097 0.56236,-0.50893 1.725039,-0.58384 9.061349,-0.58384 h 8.416213 l 2.9331,2.93309 2.93309,2.9331 v 13.76917 c 0,12.89132 -0.0411,13.80639 -0.64514,14.35301 -0.57064,0.51643 -1.88828,0.58385 -11.4106,0.58385 -9.981383,0 -10.807989,-0.047 -11.349308,-0.64514 z m 21.557598,-13.37778 0.0928,-12.08264 h -2.49011 c -2.17345,0 -2.60022,-0.11011 -3.35602,-0.86591 -0.75599,-0.75599 -0.8659,-1.18238 -0.8659,-3.359 v -2.4931 l -6.790982,0.0958 -6.790971,0.0958 -0.09209,14.99305 c -0.05065,8.24618 -0.015,15.19397 0.07924,15.43954 0.133791,0.34865 2.356883,0.42595 10.146263,0.35277 l 9.97493,-0.0937 z m -6.97199,9.6132 c 0,-0.4161 0.48997,-0.52917 2.29305,-0.52917 1.80309,0 2.29306,0.11307 2.29306,0.52917 0,0.41609 -0.48997,0.52916 -2.29306,0.52916 -1.80308,0 -2.29305,-0.11307 -2.29305,-0.52916 z m -2.46945,-2.46945 c 0,-0.43509 0.62716,-0.52917 3.52778,-0.52917 2.90062,0 3.52778,0.0941 3.52778,0.52917 0,0.43509 -0.62716,0.52917 -3.52778,0.52917 -2.90062,0 -3.52778,-0.0941 -3.52778,-0.52917 z m -7.408335,-6.35 c 0,-0.45021 0.921142,-0.52917 6.17361,-0.52917 5.252475,0 6.173615,0.079 6.173615,0.52917 0,0.45021 -0.92114,0.52917 -6.173615,0.52917 -5.252468,0 -6.17361,-0.079 -6.17361,-0.52917 z m 0,-2.46944 c 0,-0.45021 0.921142,-0.52917 6.17361,-0.52917 5.252475,0 6.173615,0.079 6.173615,0.52917 0,0.45021 -0.92114,0.52916 -6.173615,0.52916 -5.252468,0 -6.17361,-0.0789 -6.17361,-0.52916 z m 0,-2.46945 c 0,-0.45021 0.921142,-0.52916 6.17361,-0.52916 5.252475,0 6.173615,0.079 6.173615,0.52916 0,0.45021 -0.92114,0.52917 -6.173615,0.52917 -5.252468,0 -6.17361,-0.079 -6.17361,-0.52917 z m 0,-2.46944 c 0,-0.45021 0.921142,-0.52917 6.17361,-0.52917 5.252475,0 6.173615,0.079 6.173615,0.52917 0,0.45021 -0.92114,0.52917 -6.173615,0.52917 -5.252468,0 -6.17361,-0.079 -6.17361,-0.52917 z m 0,-2.46945 c 0,-0.43509 0.627161,-0.52916 3.527778,-0.52916 2.900615,0 3.527787,0.0941 3.527787,0.52916 0,0.4351 -0.627172,0.52917 -3.527787,0.52917 -2.900617,0 -3.527778,-0.0941 -3.527778,-0.52917 z m 0,-5.29166 v -2.64583 h 2.645833 2.645834 v 2.64583 2.64583 h -2.645834 -2.645833 z m 4.233333,0 v -1.5875 h -1.5875 -1.587499 v 1.5875 1.5875 h 1.587499 1.5875 z m 11.994452,0.27567 c 0,-0.34683 -3.61189,-3.97984 -3.9567,-3.97984 -0.52628,0 -0.29152,3.10972 0.27773,3.67897 0.55473,0.55473 3.67897,0.81024 3.67897,0.30087 z"
       style="fill:#ffffff;fill-opacity:1;stroke-width:0.352778" />
  </g>
</svg>
