<?xml version="1.0" encoding="UTF-8" standalone="no"?>
<svg
   xmlns:dc="http://purl.org/dc/elements/1.1/"
   xmlns:cc="http://creativecommons.org/ns#"
   xmlns:rdf="http://www.w3.org/1999/02/22-rdf-syntax-ns#"
   xmlns:svg="http://www.w3.org/2000/svg"
   xmlns="http://www.w3.org/2000/svg"
   xmlns:sodipodi="http://sodipodi.sourceforge.net/DTD/sodipodi-0.dtd"
   xmlns:inkscape="http://www.inkscape.org/namespaces/inkscape"
   sodipodi:docname="lightbulb.svg"
   inkscape:version="1.0 (4035a4fb49, 2020-05-01)"
   id="svg8"
   version="1.1"
   viewBox="0 0 19.175169 35.101379"
   height="35.101379mm"
   width="19.175169mm">
  <defs
     id="defs2" />
  <sodipodi:namedview
     fit-margin-bottom="0"
     fit-margin-right="0"
     fit-margin-left="0"
     fit-margin-top="0"
     inkscape:window-maximized="0"
     inkscape:window-y="1"
     inkscape:window-x="72"
     inkscape:window-height="1040"
     inkscape:window-width="1397"
     showgrid="false"
     inkscape:document-rotation="0"
     inkscape:current-layer="layer1"
     inkscape:document-units="mm"
     inkscape:cy="78.242782"
     inkscape:cx="34.611259"
     inkscape:zoom="3.959798"
     inkscape:pageshadow="2"
     inkscape:pageopacity="0"
     borderopacity="1.0"
     bordercolor="#666666"
     pagecolor="#000000"
     id="base" />
  <metadata
     id="metadata5">
    <rdf:RDF>
      <cc:Work
         rdf:about="">
        <dc:format>image/svg+xml</dc:format>
        <dc:type
           rdf:resource="http://purl.org/dc/dcmitype/StillImage" />
        <dc:title></dc:title>
      </cc:Work>
    </rdf:RDF>
  </metadata>
  <g
     transform="translate(-89.061,-132.54492)"
     id="layer1"
     inkscape:groupmode="layer"
     inkscape:label="Vrstva 1">
    <path
       id="path24"
       d="m 96.61214,166.84015 c -0.65794,-0.44339 -1.24868,-1.07839 -1.31276,-1.41111 -0.10354,-0.53767 0.26203,-0.60496 3.28661,-0.60496 3.02459,0 3.39017,0.0673 3.28662,0.60496 -0.15029,0.78042 -2.28011,2.21726 -3.28662,2.21726 -0.42768,0 -1.31592,-0.36277 -1.97385,-0.80615 z m -3.25901,-3.30959 c -0.46083,-0.46083 -0.22499,-1.48408 0.38218,-1.6581 2.38852,-0.68458 9.40587,-2.00693 9.81568,-1.84967 0.709,0.27207 0.62689,1.54111 -0.1143,1.76642 -1.04864,0.31876 -8.93787,1.97654 -9.40623,1.97654 -0.24318,0 -0.54798,-0.10583 -0.67733,-0.23519 z m 0,-3.88055 c -0.46083,-0.46083 -0.22499,-1.48408 0.38218,-1.6581 2.38852,-0.68458 9.40587,-2.00694 9.81568,-1.84968 0.709,0.27207 0.62689,1.54111 -0.1143,1.76642 -1.04864,0.31877 -8.93787,1.97654 -9.40623,1.97654 -0.24318,0 -0.54798,-0.10583 -0.67733,-0.23518 z m 0,-3.88056 c -0.46083,-0.46083 -0.22499,-1.48408 0.38218,-1.6581 2.38852,-0.68458 9.40587,-2.00693 9.81568,-1.84967 0.709,0.27207 0.62689,1.54111 -0.1143,1.76641 -1.04864,0.31877 -8.93787,1.97655 -9.40623,1.97655 -0.24318,0 -0.54798,-0.10583 -0.67733,-0.23519 z m -1.06216,-5.61111 c -2.62431,-3.34365 -3.22997,-4.86032 -3.22997,-8.08842 0,-3.24245 0.6193,-4.85264 2.64583,-6.87917 2.02653,-2.02653 3.63672,-2.64583 6.87916,-2.64583 2.09684,0 3.18191,0.17834 4.22164,0.69386 1.8015,0.89321 3.73477,2.8347 4.59,4.6095 0.84592,1.7555 1.10855,5.30673 0.52486,7.09716 -0.5537,1.69846 -2.25793,4.22489 -3.18443,4.72073 -0.63016,0.33725 -9.74771,2.45791 -10.5675,2.45791 -0.18521,0 -1.03102,-0.88458 -1.87959,-1.96574 z m 4.03083,-0.5037 c 0.17816,0 0.32392,-1.11125 0.32392,-2.46944 0,-2.34163 -0.042,-2.46945 -0.81139,-2.46945 -1.06521,0 -1.65805,-0.63068 -1.65805,-1.76389 0,-1.16584 0.59804,-1.76389 1.76389,-1.76389 1.1332,0 1.76388,0.59285 1.76388,1.65806 0,0.6303 0.19684,0.81139 0.88194,0.81139 0.68511,0 0.88195,-0.18109 0.88195,-0.81139 0,-1.06521 0.63068,-1.65806 1.76389,-1.65806 1.16584,0 1.76389,0.59805 1.76389,1.76389 0,1.13321 -0.59285,1.76389 -1.65806,1.76389 -0.74832,0 -0.81139,0.15083 -0.81139,1.94028 0,2.11732 0.0634,2.16371 2.16093,1.58108 2.45034,-0.68063 4.36912,-4.93796 3.51316,-7.79489 -0.90984,-3.03679 -2.94988,-5.07682 -5.98667,-5.98666 -4.8696,-1.45897 -10.5953,4.13364 -9.27726,9.06163 0.53844,2.01317 3.83622,6.60761 4.54701,6.33486 0.28294,-0.10858 0.6602,-0.19741 0.83836,-0.19741 z m 2.58812,-0.56691 c 0.42149,-0.16174 0.55802,-0.72278 0.55802,-2.29306 0,-1.98233 -0.041,-2.07892 -0.88195,-2.07892 -0.85028,0 -0.88194,0.0823 -0.88194,2.29306 0,2.27332 0.12731,2.4928 1.20587,2.07892 z m -2.2642,-5.93866 c 0,-0.27959 -0.17258,-0.61501 -0.38351,-0.74537 -0.49813,-0.30786 -1.17807,0.37207 -0.87021,0.8702 0.3458,0.55951 1.25372,0.46911 1.25372,-0.12483 z m 5.11527,-0.20204 c 0,-0.75618 -1.02505,-0.64696 -1.17373,0.12506 -0.0908,0.47145 0.0529,0.61513 0.52434,0.52434 0.35716,-0.0688 0.64939,-0.36101 0.64939,-0.6494 z"
       style="fill:#ffffff;fill-opacity:1;stroke-width:0.352778" />
  </g>
</svg>
