<?xml version="1.0" encoding="UTF-8" standalone="no"?>
<svg
   xmlns:dc="http://purl.org/dc/elements/1.1/"
   xmlns:cc="http://creativecommons.org/ns#"
   xmlns:rdf="http://www.w3.org/1999/02/22-rdf-syntax-ns#"
   xmlns:svg="http://www.w3.org/2000/svg"
   xmlns="http://www.w3.org/2000/svg"
   xmlns:sodipodi="http://sodipodi.sourceforge.net/DTD/sodipodi-0.dtd"
   xmlns:inkscape="http://www.inkscape.org/namespaces/inkscape"
   sodipodi:docname="mail.svg"
   inkscape:version="1.0 (4035a4fb49, 2020-05-01)"
   id="svg8"
   version="1.1"
   viewBox="0 0 35.277771 22.57778"
   height="22.57778mm"
   width="35.277771mm">
  <defs
     id="defs2" />
  <sodipodi:namedview
     inkscape:window-maximized="0"
     inkscape:window-y="0"
     inkscape:window-x="78"
     inkscape:window-height="1040"
     inkscape:window-width="1397"
     fit-margin-bottom="0"
     fit-margin-right="0"
     fit-margin-left="0"
     fit-margin-top="0"
     showgrid="false"
     inkscape:document-rotation="0"
     inkscape:current-layer="layer1"
     inkscape:document-units="mm"
     inkscape:cy="40.122038"
     inkscape:cx="76.996979"
     inkscape:zoom="3.959798"
     inkscape:pageshadow="2"
     inkscape:pageopacity="1"
     borderopacity="1.0"
     bordercolor="#666666"
     pagecolor="#000000"
     id="base" />
  <metadata
     id="metadata5">
    <rdf:RDF>
      <cc:Work
         rdf:about="">
        <dc:format>image/svg+xml</dc:format>
        <dc:type
           rdf:resource="http://purl.org/dc/dcmitype/StillImage" />
        <dc:title></dc:title>
      </cc:Work>
    </rdf:RDF>
  </metadata>
  <g
     transform="translate(-93.745689,-135.90979)"
     id="layer1"
     inkscape:groupmode="layer"
     inkscape:label="Vrstva 1">
    <path
       id="path863"
       d="m 94.776885,157.45637 c -1.031196,-1.0312 -1.031196,-1.0312 -1.031196,-10.25769 0,-9.2265 0,-9.2265 1.031196,-10.25769 1.031197,-1.0312 1.031197,-1.0312 16.607695,-1.0312 15.57649,0 15.57649,0 16.60769,1.0312 1.03119,1.03119 1.03119,1.03119 1.03119,10.25769 0,9.22649 0,9.22649 -1.03119,10.25769 -1.0312,1.0312 -1.0312,1.0312 -16.60769,1.0312 -15.576498,0 -15.576498,0 -16.607695,-1.0312 z m 31.071575,-0.87897 c 0,-0.0805 -2.81781,-2.18389 -6.2618,-4.6743 -8.42051,-6.08903 -7.56007,-6.09011 -16.24844,0.0203 -3.529639,2.48233 -6.417531,4.5779 -6.417531,4.65681 0,0.0789 6.508751,0.14349 14.463891,0.14349 7.95513,0 14.46388,-0.0658 14.46388,-0.14628 z m -23.14327,-5.6396 c 3.24049,-2.30911 5.76494,-4.31271 5.6099,-4.45245 -0.15505,-0.13974 -3.06003,-1.86359 -6.45551,-3.83079 -6.173613,-3.57671 -6.173613,-3.57671 -6.268771,4.26808 -0.05234,4.31464 -0.01426,8.05561 0.08462,8.31328 0.224078,0.58394 -0.09683,0.78014 7.029761,-4.29812 z m 24.47298,-3.83853 c -0.095,-7.98805 -0.095,-7.98805 -6.38976,-4.25951 -3.46213,2.05069 -6.16088,3.85215 -5.99722,4.00323 1.67612,1.54739 11.97173,8.75456 12.19177,8.53452 0.1596,-0.1596 0.24745,-3.88481 0.19521,-8.27824 z m -8.58677,-5.28045 c 6.52515,-3.96875 6.52515,-3.96875 -0.34084,-4.06441 -3.77629,-0.0526 -9.96634,-0.0526 -13.75567,0 -6.889685,0.0957 -6.889685,0.0957 -0.26458,4.03811 3.6438,2.16835 6.89754,3.95429 7.23053,3.96875 0.33298,0.0145 3.54174,-1.75964 7.13056,-3.94245 z"
       style="fill:#ffffff;stroke-width:0.352778;fill-opacity:1" />
  </g>
</svg>
